<svg xmlns="http://www.w3.org/2000/svg" viewBox="0 0 400 400" fill="none">
  <!-- soft ground shadow -->
  <ellipse cx="200" cy="366" rx="98" ry="15" fill="#0A5C8A" opacity="0.12"/>

  <g stroke="#0B0B0B" stroke-width="7" stroke-linecap="round" stroke-linejoin="round">
    <!-- body (behind head): chunky, two rounded feet + center notch -->
    <path d="M138 266
             C116 305 118 339 146 351
             C156 358 174 356 180 344
             C188 352 196 339 200 339
             C204 339 212 352 220 344
             C226 356 244 358 254 351
             C282 339 284 305 262 266 Z" fill="#fff"/>

    <!-- head with ears (shallow dome between, ears spaced apart) -->
    <path d="M165 116
             L122 70
             L110 130
             C80 148 70 176 72 204
             C74 252 130 288 200 288
             C270 288 326 252 328 204
             C330 176 320 148 290 130
             L278 70
             L235 116
             C216 124 184 124 165 116 Z" fill="#fff"/>

    <!-- eyes (calm, content) -->
    <path d="M132 186 q22 10 44 0" fill="none"/>
    <path d="M224 186 q22 10 44 0" fill="none"/>

    <!-- mouth ω -->
    <path d="M183 216 q8.5 13 17 0 q8.5 13 17 0" fill="none"/>

    <!-- whiskers (3 each side) -->
    <path d="M82 192 q-26 -3 -50 -11" fill="none"/>
    <path d="M82 208 q-27 0 -51 2"   fill="none"/>
    <path d="M82 224 q-26 4 -49 12"  fill="none"/>
    <path d="M318 192 q26 -3 50 -11" fill="none"/>
    <path d="M318 208 q27 0 51 2"    fill="none"/>
    <path d="M318 224 q26 4 49 12"   fill="none"/>
  </g>
</svg>
